# xmcd
#
# Track frame offsets: 
#        150
#        13524
#        32237
#        46924
#        71129
#        83796
#        104151
#        127824
#        144471
#        157299
#        169166
#        186180
#        201976
#        220020
#        233766
#        248480
#
# Disc length: 3449 seconds
#
# Revision: 1
# Processed by: cddbd v1.5.2PL0 Copyright (c) Steve Scherf et al.
# Submitted via: ExactAudioCopy v0.99pb5
#
DISCID=e20d7710
DTITLE=Gary Smith - Blues For Mr. B
DYEAR=2001
DGENRE=Blues
TTITLE0=South Bay Beatdown
TTITLE1=Cut You Loose
TTITLE2=Blues For Mr. B
TTITLE3=About To Loose You Clown
TTITLE4=Shake Dancer
TTITLE5=Elevate Me Mama
TTITLE6=Chrome Bullet Boogie
TTITLE7=Losin' Hand
TTITLE8=The Toddle
TTITLE9=Hate To Remember
TTITLE10=Too Late
TTITLE11=Gypsy Woman
TTITLE12=Minor Mambo
TTITLE13=Don't Let Go
TTITLE14=Best Friends Must Part
TTITLE15=Hard Times
EXTD=
EXTT0=
EXTT1=
EXTT2=
EXTT3=
EXTT4=
EXTT5=
EXTT6=
EXTT7=
EXTT8=
EXTT9=
EXTT10=
EXTT11=
EXTT12=
EXTT13=
EXTT14=
EXTT15=
PLAYORDER=
